<?xml version="1.0" standalone="no"?>
<!DOCTYPE svg PUBLIC "-//W3C//DTD SVG 20010904//EN"
 "http://www.w3.org/TR/2001/REC-SVG-20010904/DTD/svg10.dtd">
<svg version="1.0" xmlns="http://www.w3.org/2000/svg"
 width="260.000000pt" height="260.000000pt" viewBox="0 0 260.000000 260.000000"
 preserveAspectRatio="xMidYMid meet">
<metadata>
Created by potrace 1.14, written by Peter Selinger 2001-2017
</metadata>
<g transform="translate(0.000000,260.000000) scale(0.100000,-0.100000)"
fill="#000000" stroke="none">
<path d="M117 2583 c-3 -10 -7 -407 -9 -883 -3 -862 1 -994 32 -1065 5 -11 18
-41 29 -67 41 -99 158 -238 276 -330 60 -46 166 -101 241 -122 32 -10 68 -22
79 -26 72 -29 187 -55 320 -72 154 -20 429 -9 565 21 25 6 59 13 75 16 39 8
105 25 130 35 11 4 45 15 75 24 82 26 217 95 264 135 164 142 263 266 281 352
4 19 11 39 15 44 4 6 10 24 14 40 4 17 12 50 17 75 7 30 10 343 9 930 -1 746
-3 887 -15 896 -10 7 -375 11 -1204 13 -1141 2 -1189 2 -1194 -16z m1996 -334
c9 -13 17 -16 22 -10 10 18 25 12 25 -9 0 -15 -7 -20 -28 -20 -30 0 -52 -30
-52 -70 0 -14 -7 -20 -21 -20 -16 0 -20 4 -14 18 3 9 9 29 12 45 5 25 3 27
-26 27 -17 0 -31 5 -31 10 0 6 13 10 30 10 19 0 34 7 42 20 16 25 23 25 41 -1z
m-875 -1 c-2 -8 10 -14 30 -16 43 -4 41 -22 -3 -22 -28 0 -35 -4 -35 -19 0
-11 -4 -23 -10 -26 -5 -3 -10 -14 -10 -24 0 -20 -23 -44 -33 -35 -3 4 -3 14 2
23 4 9 11 31 14 49 6 27 4 32 -13 32 -11 0 -20 5 -20 10 0 6 9 10 20 10 11 0
23 7 26 15 7 18 35 20 32 3z m832 -378 c28 -19 -10 -29 -95 -26 -44 1 -88 -1
-97 -6 -19 -9 -58 6 -58 22 0 17 225 26 250 10z m-860 -4 c0 -2 -3 -11 -6 -20
-5 -13 -26 -16 -125 -16 -112 0 -119 1 -119 20 0 19 7 20 125 20 69 0 125 -2
125 -4z m640 -62 c0 -1 -11 -39 -25 -83 -21 -66 -30 -81 -46 -81 -18 0 -20 4
-14 33 8 41 36 118 47 134 8 10 38 8 38 -3z m207 2 c2 -2 -16 -80 -30 -128
l-10 -38 -94 0 c-94 0 -102 3 -84 38 13 26 31 86 31 106 0 24 31 32 113 28 39
-2 73 -5 74 -6z m-1077 -8 c0 -6 -12 -44 -27 -84 -21 -55 -33 -74 -47 -74 -13
0 -16 4 -11 18 4 9 13 40 20 67 7 28 16 58 20 68 8 19 45 24 45 5z m210 -1 c0
-6 -4 -28 -10 -46 -5 -19 -11 -50 -12 -68 -1 -19 -5 -36 -9 -39 -3 -2 -48 -6
-98 -8 -100 -4 -115 3 -93 47 6 12 16 40 23 62 7 22 17 46 22 53 13 17 177 17
177 -1z m98 -65 c4 -37 -15 -79 -30 -64 -13 13 1 104 16 99 6 -2 12 -18 14
-35z m872 7 c0 -17 -5 -39 -10 -50 -13 -23 -45 -26 -36 -3 3 9 6 31 6 50 0 27
4 34 20 34 16 0 20 -7 20 -31z m-159 -135 c21 -25 -2 -34 -91 -34 -89 0 -112
9 -91 34 15 18 167 18 182 0z m-1087 -3 c10 -16 -5 -41 -25 -41 -12 0 -19 7
-19 19 0 25 33 41 44 22z m234 -18 c3 -23 2 -23 -102 -23 -98 0 -106 1 -106
19 0 25 4 26 113 26 88 0 92 -1 95 -22z m638 16 c7 -12 -15 -31 -31 -26 -5 2
-11 11 -13 20 -4 19 32 24 44 6z m-896 -84 c0 -14 -8 -44 -19 -68 -34 -79 -41
-98 -41 -118 0 -10 -4 -28 -10 -39 -5 -11 -14 -29 -20 -40 -15 -29 -12 -40 9
-40 11 0 21 9 24 23 13 55 56 188 65 200 5 6 13 34 16 60 l7 48 107 -3 c88 -2
107 -6 105 -18 -2 -24 -20 -100 -37 -163 -23 -83 -21 -95 9 -89 14 2 36 17 49
33 20 23 33 29 65 29 26 0 46 6 58 19 26 27 82 57 124 65 25 4 39 14 47 32 16
33 15 44 -3 44 -8 0 -15 7 -15 15 0 8 6 12 14 9 7 -3 22 3 31 13 13 13 20 14
23 5 2 -6 12 -12 22 -12 32 0 33 -20 1 -31 -19 -7 -33 -20 -37 -34 -8 -33 2
-45 39 -45 18 0 55 -12 82 -25 65 -32 73 -31 80 8 4 18 14 57 24 87 14 43 23
56 41 58 19 3 21 0 15 -15 -4 -10 -11 -31 -15 -48 -5 -16 -18 -61 -30 -100
-24 -77 -43 -175 -36 -182 11 -12 24 10 35 64 17 75 25 83 77 83 l43 0 19 62
c11 35 18 68 15 74 -7 19 -40 23 -61 8 -26 -18 -33 -9 -20 27 l10 30 97 -3
c79 -3 95 -6 92 -18 -27 -108 -43 -205 -45 -285 -1 -38 -6 -80 -10 -92 -7 -18
-5 -23 9 -23 11 0 15 -7 13 -22 -3 -22 -4 -22 -243 -24 -132 -1 -248 0 -258 3
-12 3 -16 11 -12 24 13 40 -3 59 -51 59 -48 0 -84 -25 -84 -59 0 -16 -9 -21
-42 -24 -24 -3 -56 -5 -73 -4 -16 0 -38 -3 -47 -7 -27 -12 -23 19 5 36 12 8
42 20 67 28 25 7 49 17 54 22 6 4 16 8 24 8 21 0 82 31 82 41 0 14 -16 11 -63
-10 -23 -11 -57 -23 -76 -26 -19 -4 -49 -15 -66 -25 -18 -10 -41 -20 -51 -22
-11 -2 -19 -12 -19 -23 0 -18 -7 -20 -57 -20 -32 1 -229 2 -439 3 -262 1 -380
5 -377 13 2 7 76 11 213 12 205 2 210 3 220 24 5 12 21 24 36 27 22 4 31 16
48 61 12 31 21 62 21 69 0 14 34 107 51 138 5 10 9 25 9 33 0 8 4 23 9 33 5 9
12 25 15 35 8 27 36 21 36 -8z m1524 -412 c4 -9 1 -20 -5 -24 -16 -9 -285 -7
-294 3 -4 4 -5 14 -2 23 5 12 30 15 151 15 125 0 145 -2 150 -17z m-1235 -57
c35 -1 36 -2 33 -36 -2 -19 -12 -60 -22 -90 -11 -30 -22 -82 -25 -115 -4 -33
-20 -105 -37 -160 -16 -55 -32 -108 -35 -118 -6 -23 26 -20 37 3 10 21 31 105
41 165 7 46 15 79 63 248 9 32 16 66 16 76 0 22 21 33 39 21 10 -6 10 -12 2
-29 -18 -33 -7 -39 66 -37 l67 2 7 33 c8 38 16 48 29 35 5 -5 5 -24 -1 -49 -6
-22 -17 -69 -25 -105 -7 -36 -18 -85 -24 -110 -6 -25 -14 -58 -17 -75 -3 -16
-9 -34 -13 -40 -3 -5 -12 -37 -19 -70 -7 -33 -17 -70 -22 -83 -13 -34 -11 -42
11 -42 14 0 20 7 20 21 0 11 13 59 29 107 16 48 32 116 35 151 4 35 11 71 15
80 5 9 19 57 31 106 12 50 26 96 32 103 12 14 135 17 157 3 14 -9 15 -3 -81
-391 -17 -69 -33 -131 -35 -137 -3 -7 1 -13 9 -13 8 0 19 20 27 48 7 26 21 76
32 112 32 116 48 174 54 210 15 83 39 166 49 172 13 9 201 7 215 -2 7 -4 7
-18 1 -40 -17 -62 -49 -204 -56 -243 -6 -34 -4 -39 12 -35 19 3 31 43 54 188
5 30 14 74 21 97 l11 42 215 -2 214 -2 6 -24 c8 -32 -6 -224 -18 -235 -5 -6
-9 -23 -9 -38 0 -59 -118 -276 -182 -336 -84 -79 -199 -162 -223 -162 -6 0
-20 -9 -30 -20 -10 -11 -24 -20 -32 -20 -7 0 -21 -4 -31 -9 -75 -38 -182 -69
-287 -81 -276 -33 -334 -33 -598 -1 -70 9 -176 36 -234 61 -64 27 -81 37 -120
62 -23 15 -46 28 -51 28 -5 0 -17 9 -27 20 -10 11 -22 20 -28 20 -20 0 -141
118 -178 173 -22 32 -39 63 -39 68 0 5 -3 9 -8 9 -4 0 -12 15 -19 33 -6 17
-19 52 -28 77 -27 69 -45 185 -45 288 l0 92 388 -2 387 -3 -3 -35 c-1 -19 -7
-44 -12 -55 -25 -51 -87 -331 -76 -342 9 -9 26 8 26 27 0 10 5 22 10 25 6 3
10 17 10 30 0 13 4 34 9 47 5 13 14 43 21 68 25 90 30 106 50 172 20 63 23 67
53 70 18 2 36 2 41 -1 5 -2 25 -4 45 -5z"/>
<path d="M1915 1786 c-17 -12 -44 -82 -45 -113 0 -8 14 -13 39 -13 38 0 39 1
46 43 4 23 11 50 16 59 7 13 4 20 -10 28 -25 13 -23 13 -46 -4z"/>
<path d="M1033 1768 c-12 -27 -33 -91 -33 -102 0 -4 19 -6 43 -4 38 3 43 6 53
38 25 74 23 85 -17 88 -28 2 -37 -1 -46 -20z"/>
<path d="M938 1473 c-9 -10 -20 -38 -26 -63 -5 -25 -11 -52 -13 -60 -3 -11 5
-15 35 -15 38 0 40 2 56 47 9 26 19 51 23 55 11 10 8 20 -9 37 -20 21 -47 20
-66 -1z"/>
<path d="M1075 1220 c3 -5 46 -10 96 -10 53 0 89 4 89 10 0 6 -39 10 -96 10
-61 0 -93 -4 -89 -10z"/>
<path d="M1500 1220 c0 -6 28 -10 65 -10 37 0 65 4 65 10 0 6 -28 10 -65 10
-37 0 -65 -4 -65 -10z"/>
<path d="M1295 891 c-34 -7 -65 -57 -65 -103 0 -15 -4 -30 -10 -33 -5 -3 -10
-21 -10 -39 0 -17 -4 -36 -8 -41 -13 -16 -30 -76 -37 -132 l-7 -52 39 -6 c21
-3 50 -8 64 -10 20 -3 29 2 38 21 6 14 11 33 11 44 0 10 4 21 9 24 5 3 11 20
14 38 7 37 18 90 41 193 16 69 16 70 -5 88 -22 18 -26 18 -74 8z"/>
<path d="M1064 853 c-28 -5 -38 -28 -70 -153 -15 -58 -28 -110 -31 -116 -3 -9
69 -64 85 -64 9 0 72 209 72 237 0 12 5 25 10 28 14 9 13 48 -2 63 -12 12 -24
13 -64 5z"/>
<path d="M1498 843 c-9 -10 -21 -36 -26 -58 -17 -68 -33 -142 -42 -197 -5 -29
-12 -68 -16 -85 -6 -31 7 -46 20 -24 3 4 24 11 46 15 34 5 40 10 40 31 0 13 4
26 9 29 5 3 11 23 14 43 2 21 11 63 19 93 35 125 31 152 -22 165 -18 4 -31 1
-42 -12z"/>
<path d="M601 519 c-29 -12 -88 -37 -118 -52 -13 -6 -23 -14 -23 -19 0 -12 27
-10 50 4 26 16 37 3 17 -20 -18 -20 -22 -42 -9 -42 5 0 17 9 27 20 13 14 29
20 51 18 60 -4 95 50 56 85 -21 19 -19 19 -51 6z m39 -39 c0 -16 -7 -20 -35
-20 -39 0 -43 6 -17 26 26 20 52 17 52 -6z"/>
<path d="M1960 493 c1 -20 113 -123 134 -123 12 0 6 28 -6 33 -9 3 -7 10 7 26
14 17 27 21 47 17 16 -3 28 -2 28 2 -1 20 -20 30 -65 36 -124 16 -145 17 -145
9z m108 -40 c2 -8 -6 -13 -22 -13 -17 0 -26 5 -26 16 0 19 41 16 48 -3z"/>
<path d="M644 404 c-32 -25 -60 -49 -62 -54 -4 -10 59 -42 67 -35 3 3 -1 15
-8 27 -17 28 4 42 34 22 22 -15 35 -10 35 13 0 7 -8 13 -17 13 -15 0 -16 2 -3
10 8 5 30 7 48 4 39 -8 42 8 5 27 -16 7 -30 15 -34 16 -3 2 -32 -17 -65 -43z"/>
<path d="M1900 435 c-7 -8 -19 -15 -26 -15 -8 0 -14 -4 -14 -10 0 -5 13 -10
28 -10 19 0 43 -13 73 -40 47 -43 59 -48 59 -26 0 8 -19 28 -42 45 -24 18 -43
39 -43 48 0 22 -19 27 -35 8z"/>
<path d="M794 375 c-30 -13 -74 -58 -74 -76 0 -4 12 -21 26 -38 21 -26 33 -31
69 -31 24 0 47 4 50 10 4 6 -5 10 -20 10 -33 0 -85 26 -85 43 0 7 7 23 16 35
21 30 88 31 104 2 11 -20 40 -28 40 -11 0 25 -16 43 -47 56 -41 17 -39 17 -79
0z"/>
<path d="M1781 376 c-27 -32 14 -66 79 -66 29 0 40 -4 37 -12 -2 -7 -15 -13
-28 -13 -30 0 -32 -29 -2 -33 33 -5 63 15 63 43 0 29 -39 59 -64 49 -20 -8
-66 3 -66 16 0 6 14 10 30 10 17 0 30 5 30 10 0 15 -66 12 -79 -4z"/>
<path d="M1700 341 c0 -5 7 -14 15 -21 8 -7 15 -16 15 -21 0 -5 10 -25 23 -44
22 -35 57 -47 57 -20 0 8 -4 15 -9 15 -4 0 -22 23 -39 50 -27 44 -62 67 -62
41z"/>
<path d="M978 313 c-29 -14 -52 -47 -53 -73 0 -8 11 -27 24 -42 34 -38 96 -39
140 -2 48 40 37 94 -24 120 -41 17 -51 16 -87 -3z m102 -44 c9 -16 8 -26 -5
-45 -22 -35 -41 -39 -81 -21 -36 18 -42 35 -22 67 18 29 93 28 108 -1z"/>
<path d="M1640 325 c0 -3 9 -23 20 -45 25 -49 25 -70 1 -70 -23 0 -35 14 -52
63 -8 24 -19 37 -31 37 -22 0 -23 3 7 -62 25 -55 60 -83 88 -72 21 8 41 50 31
66 -5 7 -14 29 -19 48 -6 19 -18 36 -28 38 -9 2 -17 1 -17 -3z"/>
<path d="M1414 296 c-62 -34 -76 -73 -42 -116 21 -27 28 -29 94 -29 77 -1 93
5 66 25 -10 8 -12 13 -4 14 17 0 15 41 -4 69 -13 19 -74 54 -86 50 -2 -1 -13
-6 -24 -13z m69 -40 c9 -7 17 -23 17 -36 0 -18 -4 -21 -22 -16 -13 3 -38 6
-55 6 -23 0 -33 5 -33 15 0 40 56 59 93 31z m-18 -76 c-3 -5 -15 -10 -26 -10
-10 0 -19 5 -19 10 0 6 12 10 26 10 14 0 23 -4 19 -10z"/>
<path d="M1165 229 c-4 -38 -5 -73 -2 -76 13 -12 27 11 27 43 0 44 17 41 43
-7 39 -69 62 -56 73 40 6 58 5 63 -12 59 -14 -2 -20 -13 -22 -40 -3 -34 -5
-36 -23 -25 -10 6 -19 17 -19 23 0 13 -37 54 -49 54 -5 0 -12 -32 -16 -71z"/>
</g>
</svg>
